<?xml version="1.0" encoding="UTF-8"?> <!-- Generator: Adobe Illustrator 24.1.2, SVG Export Plug-In . SVG Version: 6.00 Build 0) --> <svg xmlns="http://www.w3.org/2000/svg" xmlns:xlink="http://www.w3.org/1999/xlink" version="1.1" id="Isolation_Mode" x="0px" y="0px" viewBox="0 0 444.2 130.8" style="enable-background:new 0 0 444.2 130.8;" xml:space="preserve"> <style type="text/css"> .st0{fill:#FFFFFF;} .st1{fill:#FBC712;} .st2{fill:url(#SVGID_1_);} .st3{fill:url(#SVGID_2_);} .st4{fill:url(#SVGID_3_);} .st5{fill:url(#SVGID_4_);} .st6{fill:url(#SVGID_5_);} .st7{fill:url(#SVGID_6_);} .st8{fill:url(#SVGID_7_);} .st9{fill:url(#SVGID_8_);} .st10{fill:url(#SVGID_9_);} .st11{fill:url(#SVGID_10_);} .st12{fill:url(#SVGID_11_);} .st13{fill:url(#SVGID_12_);} .st14{fill:url(#SVGID_13_);} .st15{fill:url(#SVGID_14_);} .st16{fill:url(#SVGID_15_);} .st17{fill:url(#SVGID_16_);} .st18{fill:url(#SVGID_17_);} .st19{fill:url(#SVGID_18_);} .st20{fill:#F8E443;} .st21{fill:url(#SVGID_19_);} .st22{fill:url(#SVGID_20_);} .st23{fill:url(#SVGID_21_);} .st24{fill:url(#SVGID_22_);} .st25{fill:url(#SVGID_23_);} .st26{fill:#F5F2AE;} .st27{fill:url(#SVGID_24_);} .st28{fill:url(#SVGID_25_);} .st29{fill:url(#SVGID_26_);} .st30{fill:url(#SVGID_27_);} .st31{fill:url(#SVGID_28_);} .st32{fill:url(#SVGID_29_);} .st33{fill:url(#SVGID_30_);} .st34{fill:url(#SVGID_31_);} .st35{fill:#F7E723;} .st36{fill:#FFE200;} </style> <g> <g> <polygon class="st0" points="80.3,48.6 70.7,24.5 70.5,24.5 66.7,48.6 52.1,48.6 60.7,0 74.6,0 84.4,25.3 84.7,25.3 88.7,0 103.3,0 94.7,48.6 "></polygon> </g> <g> <polygon class="st0" points="176.4,14 170.3,48.6 155.2,48.6 161.3,14 149.7,14 152.2,0 190.1,0 187.6,14 "></polygon> </g> <g> <polygon class="st0" points="183.3,48.6 191.9,0 207,0 198.4,48.6 "></polygon> </g> <g> <polygon class="st0" points="284.2,48.6 274.7,24.5 274.4,24.5 270.6,48.6 256,48.6 264.6,0 278.5,0 288.4,25.3 288.6,25.3 292.8,0 307.4,0 298.7,48.6 "></polygon> </g> <path class="st0" d="M141.6,0h-14.8L97.3,48.6h16.6l4.5-8.2h14.9l1.2,8.2h15.6L141.6,0z M124.1,28.8l6.6-11.8l1.4,11.8H124.1z"></path> <path class="st0" d="M251.2,6c-1.9-1.9-4.3-3.3-7.1-4.3c-2.8-1-6.1-1.5-9.8-1.5c-4.2,0-8,0.7-11.5,2.1s-6.4,3.4-8.8,5.8 c-2.4,2.5-4.3,5.4-5.6,8.7s-2,6.9-2,10.7c0,3.1,0.5,5.9,1.5,8.4s2.4,4.8,4.4,6.6c1.9,1.9,4.3,3.3,7.1,4.3c2.8,1,6.1,1.5,9.8,1.5 c4.2,0,8.1-0.7,11.5-2.1s6.4-3.4,8.8-5.8c2.4-2.5,4.3-5.4,5.6-8.7c1.3-3.3,2-6.9,2-10.7c0-3.1-0.5-5.9-1.5-8.4 C254.6,10.1,253.1,7.9,251.2,6z M240.6,26.9c-0.5,1.5-1.3,2.9-2.2,4c-0.9,1.2-2.1,2.1-3.4,2.8s-2.9,1-4.6,1c-1.4,0-2.6-0.2-3.7-0.7 s-1.9-1-2.7-1.8c-0.7-0.8-1.2-1.6-1.6-2.7c-0.4-1-0.6-2.1-0.6-3.3c0-1.6,0.3-3.1,0.8-4.6c0.5-1.5,1.3-2.9,2.2-4 c0.9-1.2,2.1-2.1,3.5-2.8c1.4-0.7,2.9-1.1,4.6-1.1c1.3,0,2.5,0.2,3.6,0.6c1.1,0.4,1.9,1,2.7,1.8c0.7,0.8,1.2,1.6,1.6,2.7 c0.4,1,0.6,2.1,0.6,3.3C241.4,23.8,241.2,25.4,240.6,26.9z"></path> <path class="st0" d="M345.4,0h-14.8L301,48.6h16.6l4.5-8.2H337l1.2,8.2h15.6L345.4,0z M327.9,28.8l6.6-11.8l1.4,11.8H327.9z"></path> <g> <polygon class="st0" points="357.2,48.6 365.9,0 381,0 374.9,34.5 390.8,34.5 388.3,48.6 "></polygon> </g> </g> <g> <g> <path class="st0" d="M53,62.9c-1.3-2.5-3.1-4.5-5.2-6.1s-4.5-2.7-7.1-3.4c-2.6-0.7-5.2-1.1-7.8-1.1h-19l-8.5,48.6h21.2 c4,0,7.8-0.6,11.2-1.8c3.4-1.2,6.4-3,8.9-5.3c2.5-2.3,4.5-5,5.9-8.3S55,76,55,72C55,68.4,54.3,65.4,53,62.9z M38.7,79.3 c-0.5,1.4-1.2,2.7-2.2,3.8c-1,1.1-2.2,2-3.7,2.7c-1.5,0.7-3.2,1-5.1,1h-4.9l3.6-20.4h4c1.6,0,2.9,0.2,4.1,0.7 c1.2,0.5,2.1,1.1,2.8,1.8c0.7,0.8,1.3,1.7,1.6,2.7c0.3,1.1,0.5,2.2,0.5,3.3C39.5,76.4,39.2,77.8,38.7,79.3z"></path> </g> <g> <polygon class="st0" points="54.3,100.9 62.6,52.4 77.7,52.4 69.5,100.9 "></polygon> </g> <g> <path class="st0" d="M105.8,67.4c-0.7-0.9-1.7-1.6-2.9-2.1s-2.5-0.8-4.1-0.8c-1.2,0-2.3,0.3-3.3,0.8c-1,0.5-1.5,1.3-1.5,2.4 c0,0.9,0.4,1.5,1.2,2c0.8,0.5,2,1,3.6,1.5c2,0.7,3.8,1.4,5.3,2.2s2.9,1.8,3.9,2.9c1.1,1.1,1.9,2.3,2.5,3.7 c0.6,1.4,0.9,2.9,0.9,4.7c0,2.9-0.7,5.4-1.9,7.5s-2.9,3.8-4.9,5.1s-4.2,2.2-6.6,2.9c-2.4,0.6-4.8,0.9-7.1,0.9 c-1.8,0-3.6-0.2-5.4-0.5c-1.8-0.3-3.6-0.7-5.2-1.3c-1.7-0.6-3.2-1.2-4.7-2.1c-1.5-0.8-2.8-1.8-3.8-2.8L82,84.8 c0.5,0.6,1.2,1.2,1.9,1.6c0.7,0.5,1.5,0.9,2.3,1.2c0.8,0.3,1.6,0.6,2.4,0.8c0.8,0.2,1.6,0.3,2.3,0.3c1.5,0,2.7-0.2,3.6-0.8 c0.9-0.5,1.4-1.2,1.4-2.2c0-0.8-0.4-1.5-1.1-2.1s-2.2-1.2-4.2-1.9c-1.7-0.5-3.2-1.1-4.6-1.8c-1.4-0.7-2.7-1.5-3.8-2.5 s-1.9-2.1-2.5-3.5c-0.6-1.4-0.9-3-0.9-5c0-2.4,0.5-4.6,1.5-6.6c1-2,2.4-3.8,4.2-5.3c1.8-1.5,3.9-2.7,6.4-3.5 c2.5-0.8,5.2-1.3,8.2-1.3c1.6,0,3.3,0.1,4.9,0.4c1.6,0.3,3.1,0.7,4.6,1.2s2.8,1.1,4,1.8s2.2,1.5,3.1,2.3L105.8,67.4z"></path> </g> <g> <path class="st0" d="M151.1,56.1c-3.1-2.5-7.7-3.7-13.6-3.7h-17.1l-8.7,48.6h14.9l3-16.3h4.4c3.4,0,6.4-0.3,9-1 c2.6-0.7,4.9-1.7,6.8-3.1s3.3-3.2,4.2-5.3c1-2.2,1.5-4.7,1.5-7.7C155.6,63.2,154.2,58.5,151.1,56.1z M138.9,72.3 c-1.2,0.7-2.8,1-4.9,1h-2.4l1.4-7.9h2.3c1.6,0,2.9,0.3,3.9,0.8c0.9,0.5,1.4,1.5,1.4,2.9C140.6,70.5,140.1,71.6,138.9,72.3z"></path> </g> <g> <polygon class="st0" points="222.4,66.3 216.3,100.9 201.2,100.9 207.3,66.3 195.7,66.3 198.4,52.4 236.3,52.4 233.6,66.3 "></polygon> </g> <g> <path class="st0" d="M269.7,96.8c-1.2,0.8-2.5,1.5-4.1,2.1s-3.2,1.1-5.1,1.5c-1.9,0.4-4,0.6-6.3,0.6c-3.5,0-6.6-0.5-9.2-1.4 c-2.7-0.9-5-2.3-6.9-4.1c-1.9-1.8-3.3-3.9-4.3-6.4s-1.5-5.3-1.5-8.4c0-3.9,0.7-7.6,2-11c1.4-3.4,3.3-6.4,5.8-9s5.4-4.6,8.8-6 s7.1-2.2,11.1-2.2c4,0,7.5,0.6,10.5,1.8s5.4,2.8,7,4.6L267,69.6c-0.8-1.1-1.8-2-3.1-2.5s-2.7-0.8-4.3-0.8c-1.6,0-3.1,0.3-4.5,1 c-1.3,0.7-2.5,1.6-3.4,2.7s-1.7,2.5-2.2,4c-0.5,1.5-0.8,3.1-0.8,4.9c0,2.2,0.7,4.2,2.1,5.7c1.4,1.6,3.5,2.3,6.3,2.3 c1.6,0,3.2-0.3,4.6-1c1.4-0.7,2.7-1.5,3.7-2.5l7.4,11C271.9,95.2,270.9,95.9,269.7,96.8z"></path> </g> <g> <polygon class="st0" points="300.5,100.9 303.9,82 290.8,82 287.4,100.9 272.4,100.9 281,52.4 296,52.4 292.9,69.4 306.1,69.4 308.9,52.4 323.9,52.4 315.5,100.9 "></polygon> </g> <g> <polygon class="st0" points="321.6,100.9 330,52.4 345.2,52.4 336.8,100.9 "></polygon> </g> <g> <polygon class="st0" points="370.4,100.9 361.6,76.8 361.3,76.8 357.5,100.9 342.9,100.9 351.5,52.4 365.5,52.4 375.3,77.6 375.5,77.6 379.5,52.4 394.2,52.4 385.5,100.9 "></polygon> </g> <g> <path class="st0" d="M428.5,69.4c-0.7-1.1-1.7-2-3-2.7s-2.8-1-4.8-1c-1.5,0-3,0.3-4.4,0.9s-2.6,1.5-3.7,2.7 c-1.1,1.2-1.9,2.6-2.6,4.2c-0.6,1.7-1,3.5-1,5.6c0,2.6,0.7,4.7,2.2,6.3c1.5,1.7,3.8,2.5,7,2.5c0.7,0,1.5-0.1,2.2-0.2 c0.8-0.1,1.4-0.3,1.9-0.5l0.7-4h-7.5l2.1-11.8h20l-4,24.2c-2.4,1.3-4.7,3.1-7.6,4.1c-3,1-6.2,1.3-9.6,1.3c-3.5,0-6.6-0.4-9.4-1.3 s-5.2-2.2-7.2-3.9c-2-1.7-3.6-3.9-4.7-6.4c-1.1-2.5-1.7-5.4-1.7-8.7c0-3.9,0.7-7.6,2-11s3.2-6.4,5.6-9c2.4-2.5,5.3-4.6,8.6-6 c3.4-1.5,7-2.2,11.1-2.2c4,0,7.5,0.6,10.6,1.7s5.5,2.7,7.1,4.7L428.5,69.4z"></path> </g> <path class="st0" d="M172.9,52.4l-29.8,48.6h16.8l4.6-8.3h14.9l1.4,8.3h15.6l-8.6-48.6H172.9z M170.2,81.1l6.6-11.8l1.4,11.8H170.2 z"></path> </g> <g> <path class="st1" d="M429.3,46.3c4.7-0.6,12.1-5.8,13.9-9.1c2-3.5,0.7-6.4-0.1-7.4c-0.4-0.5-1.3-1.4-2.5-2.3 c-4.7-3.5-5.1-5.2-5.2-5.3c-0.2-0.9-1.1-6.3-1.3-7.4c0-0.1-0.1-0.3-0.1-0.4c-0.4-0.6-2.8-4.2-6.4-7.7c-5.2-5-10.5-7.3-15.4-6.6 c-1,0.1-2,0.4-3,0.8c-0.4,0.2-0.7,0.3-0.9,0.4c-1.4,0.4-2.8,1-4.1,1.8l-0.1,0c-0.1,0-0.1,0-0.2,0.1c-2.1,1-3,2.4-3.1,2.7 c-0.6,0.6-1.2,1.3-1.7,2.1c-0.8,0.7-1.9,1.9-2.7,3.9c-0.2,0.6-0.4,1.3-0.5,2c-0.1,0.3-0.3,1.5-0.3,1.7c-0.7,2.4-1.2,5-1.4,7.9 c-2.7,2.3-2.9,5.3-0.5,9.2c2.6,4.5,10.2,6.2,12.7,6.7c0.3,0.1,0.6,0.1,0.6,0.2c0.1,0,0.2,0.2,0.3,0.3c0.5,0.5,1.3,1.2,2.5,1.1l0,0 c0.1,0,0.2,0,0.3-0.1c0.3,0,1.9,0.6,3.6,1.3c4.6,1.7,11.5,4.2,14.5,4.3C428.5,46.4,428.9,46.4,429.3,46.3L429.3,46.3z"></path> <linearGradient id="SVGID_1_" gradientUnits="userSpaceOnUse" x1="-10576.9229" y1="142.3428" x2="-10659.3633" y2="181.2576" gradientTransform="matrix(-0.9925 0.1221 -0.1221 -0.9925 -10093.4844 1484.021)"> <stop offset="0" style="stop-color:#FAE59E"></stop> <stop offset="0.2176" style="stop-color:#F6E000"></stop> <stop offset="0.4298" style="stop-color:#F2C21A"></stop> <stop offset="1" style="stop-color:#F6E411"></stop> </linearGradient> <path class="st2" d="M435.3,22.3c0,0,0.5,1.7,4,4.4s3.5,3.2,3.5,3.2s2.1,3.5,0.1,7.1c-2,3.6-10.4,9.2-14.8,9.1 c-4.4-0.2-17.5-5.7-18.1-5.6c-1.6,0.5-2.6-1-3-1.2c-0.4-0.2-10.2-1.6-13.2-6.8s-1.1-7.8,1.2-9.4C416.4,22.6,435.3,22.3,435.3,22.3z "></path> <linearGradient id="SVGID_2_" gradientUnits="userSpaceOnUse" x1="-10613.002" y1="199.8062" x2="-10615.0283" y2="156.4494" gradientTransform="matrix(-0.9925 0.1221 -0.1221 -0.9925 -10093.4844 1484.021)"> <stop offset="0" style="stop-color:#FFFFFF"></stop> <stop offset="4.320000e-02" style="stop-color:#FFF3CE"></stop> <stop offset="8.920000e-02" style="stop-color:#FFE7A1"></stop> <stop offset="0.1335" style="stop-color:#FFDF7E"></stop> <stop offset="0.175" style="stop-color:#FFD865"></stop> <stop offset="0.2126" style="stop-color:#FFD455"></stop> <stop offset="0.2429" style="stop-color:#FFD350"></stop> <stop offset="0.6806" style="stop-color:#F7EA1E"></stop> </linearGradient> <path class="st3" d="M408,7.8c-5.1-0.5-6.3-5.3,8-6.2c0.1,0,0.2,0.1,0.3,0.1c10.5,3,15.3,9.6,17.5,15.4c-1.9,1.9-4.2,3.9-6.2,4.4 C422,15,416.9,8.9,408,7.8z"></path> <linearGradient id="SVGID_3_" gradientUnits="userSpaceOnUse" x1="-10616.332" y1="209.6623" x2="-10602.4043" y2="132.4795" gradientTransform="matrix(-0.9925 0.1221 -0.1221 -0.9925 -10093.4844 1484.021)"> <stop offset="1.033399e-03" style="stop-color:#F4EA16"></stop> <stop offset="0.3656" style="stop-color:#FBCB0D"></stop> <stop offset="0.5929" style="stop-color:#FFE200"></stop> <stop offset="0.7799" style="stop-color:#FCE507"></stop> <stop offset="1" style="stop-color:#F4EA16"></stop> </linearGradient> <path class="st4" d="M394.3,25.5c1.1-22,14.3-26.6,21.8-23.8c-14.3,0.9-13.1,5.7-8,6.2c8.9,1.1,14,7.2,19.6,13.7 c2-0.5,4.4-2.5,6.2-4.4c2.1,5.5,1.9,10.3,1.9,10.3c-1,7.4-9.9,13.1-24.6,9.8C396.1,33.8,394.2,30,394.3,25.5z"></path> <linearGradient id="SVGID_4_" gradientUnits="userSpaceOnUse" x1="-10603.1787" y1="174.523" x2="-10625.7969" y2="137.1805" gradientTransform="matrix(-0.9925 0.1221 -0.1221 -0.9925 -10093.4844 1484.021)"> <stop offset="0" style="stop-color:#FFFFFF"></stop> <stop offset="7.220000e-02" style="stop-color:#FCFAD1"></stop> <stop offset="0.1539" style="stop-color:#F8F4A4"></stop> <stop offset="0.2325" style="stop-color:#F5F081"></stop> <stop offset="0.3062" style="stop-color:#F4ED68"></stop> <stop offset="0.373" style="stop-color:#F2EC58"></stop> <stop offset="0.4267" style="stop-color:#F2EB53"></stop> <stop offset="0.9758" style="stop-color:#F5DF07"></stop> </linearGradient> <path class="st5" d="M443,35.8c0,0-2.5,5.3-13.1,9.5c-2.4,0.6-7.9-2.3-9.8-2.6c-1.9-0.3-9.6-3.2-11.2-3.8c-1.1-0.4-2-0.8-1.2-1.4 c0.3-0.2,0.7-0.6,1.2-0.4c1.4,0.5,3.1,0.9,4.5,1.1c3.6,0.5,5.8,0.8,5.9,1.2c0.2,1,1.8,1,3.3,0.8c9.6-1.1,11.8-2.9,12.8-4.1 C436.2,34.9,438.3,35.2,443,35.8z"></path> <linearGradient id="SVGID_5_" gradientUnits="userSpaceOnUse" x1="-10590.9756" y1="116.45" x2="-10617.6758" y2="174.3468" gradientTransform="matrix(-0.9925 0.1221 -0.1221 -0.9925 -10093.4844 1484.021)"> <stop offset="0" style="stop-color:#FAE59E"></stop> <stop offset="0.5106" style="stop-color:#F3EB50"></stop> <stop offset="0.8424" style="stop-color:#EEA81F"></stop> </linearGradient> <path class="st6" d="M393.9,24c-1,1.8-1.4,2.6-0.8,5c1.3,4.6,6.6,7.2,11.1,8.5s15.9,5,20.4,6.7c4.5,1.7,6.2,1.1,9.8-0.8 c9.2-4.9,9.3-9.2,9-11.4c-0.3-2.6-3.3-4.7-3.4-4.7c2.8,2.2,2.5,2.2,3,2.8c1,1.4,1.7,3.7,0,7c-2,3.7-10.4,9.2-14.8,9.1 c-4.4-0.2-17.5-5.7-18.1-5.6c-1.6,0.5-2.6-1-3-1.2c-0.4-0.2-10.2-1.6-13.2-6.8C391.4,28.2,392.2,25.7,393.9,24z"></path> <linearGradient id="SVGID_6_" gradientUnits="userSpaceOnUse" x1="-10595.7773" y1="389.828" x2="-10614.9756" y2="431.4581" gradientTransform="matrix(-0.9973 7.290000e-02 -7.290000e-02 -0.9973 -10116.8516 1232.735)"> <stop offset="0" style="stop-color:#FFFFFF"></stop> <stop offset="7.600000e-02" style="stop-color:#FFF3CE"></stop> <stop offset="0.1571" style="stop-color:#FFE7A1"></stop> <stop offset="0.2351" style="stop-color:#FFDF7E"></stop> <stop offset="0.3082" style="stop-color:#FFD865"></stop> <stop offset="0.3745" style="stop-color:#FFD455"></stop> <stop offset="0.4278" style="stop-color:#FFD350"></stop> <stop offset="0.9757" style="stop-color:#F7EA1E"></stop> </linearGradient> <path class="st7" d="M430.4,45.1c1.1-0.2,2.1-0.7,3.2-1.3c0,0,0.1,0.3,0.1,0.3c-1.1,0.6-2.2,1.1-3.2,1.3 C430.3,45.5,430.2,45.2,430.4,45.1z"></path> <linearGradient id="SVGID_7_" gradientUnits="userSpaceOnUse" x1="-10616.3662" y1="133.3637" x2="-10599.0645" y2="170.4245" gradientTransform="matrix(-0.9925 0.1221 -0.1221 -0.9925 -10093.4844 1484.021)"> <stop offset="0.1423" style="stop-color:#FFD350"></stop> <stop offset="0.9758" style="stop-color:#F6A71B"></stop> </linearGradient> <path class="st8" d="M411,39.8c4.9,1.6,10.6,3.4,13.5,4.5c1,0.4,1.8,0.6,2.6,0.8c0.1,0,0.1,0.5,0,0.4c-3.4-0.6-9.4-2.8-13.2-4.2 c-1.4-0.5-2.3-0.9-2.9-1.1C410.8,40.2,410.8,39.7,411,39.8z"></path> <linearGradient id="SVGID_8_" gradientUnits="userSpaceOnUse" x1="-10605.5508" y1="128.2996" x2="-10587.834" y2="166.2497" gradientTransform="matrix(-0.9925 0.1221 -0.1221 -0.9925 -10093.4844 1484.021)"> <stop offset="0.1423" style="stop-color:#FFD350"></stop> <stop offset="0.9758" style="stop-color:#F6A71B"></stop> </linearGradient> <path class="st9" d="M392.7,28.4c0,0.2,0.1,0.4,0.2,0.7c1.3,4.8,6.9,7.4,11.3,8.7c0.7,0.2,1.5,0.5,2.5,0.8c0.1,0,0.2,0.3,0,0.2 c-0.1,0-0.1,0-0.2,0c-1.2-0.3-3.6-0.8-6.1-1.8c-3.1-1.3-5.1-2.8-6.2-4.6c-0.8-1.3-1.2-2.5-1.4-3.6 C392.6,28.2,392.6,28.1,392.7,28.4z"></path> <linearGradient id="SVGID_9_" gradientUnits="userSpaceOnUse" x1="-10589.6348" y1="146.286" x2="-10586.3672" y2="173.568" gradientTransform="matrix(-0.9925 0.1221 -0.1221 -0.9925 -10093.4844 1484.021)"> <stop offset="0" style="stop-color:#FAE59E"></stop> <stop offset="0.508" style="stop-color:#F6A71B"></stop> <stop offset="0.697" style="stop-color:#F8E43F"></stop> <stop offset="1" style="stop-color:#C34127"></stop> </linearGradient> <path class="st10" d="M393.6,26.2c0.2-0.4,1.3-0.5,1.3-0.5c-0.1,1.9-0.2,2.6-0.2,3.1c0,0-0.7,0.5-1.1,0.5 C393.7,29.3,393.4,26.5,393.6,26.2z"></path> <g> <linearGradient id="SVGID_10_" gradientUnits="userSpaceOnUse" x1="-10582.9707" y1="167.2639" x2="-10589.9629" y2="164.9569" gradientTransform="matrix(-0.9925 0.1221 -0.1221 -0.9925 -10093.4844 1484.021)"> <stop offset="0" style="stop-color:#E5D292"></stop> <stop offset="0.2182" style="stop-color:#E0B524"></stop> <stop offset="0.3416" style="stop-color:#F6E000"></stop> <stop offset="0.697" style="stop-color:#D68D29"></stop> <stop offset="1" style="stop-color:#AC3B25"></stop> </linearGradient> <path class="st11" d="M393.1,24.1c0-0.1,0-0.2,0.1-0.3c-0.1,0.6,0,1.4,0.4,2.3c-0.2,0.4,0.1,3.1,0.1,3.1 C393.4,27.2,393,25.1,393.1,24.1z"></path> <linearGradient id="SVGID_11_" gradientUnits="userSpaceOnUse" x1="-10594.6621" y1="169.3319" x2="-10584.251" y2="167.6202" gradientTransform="matrix(-0.9925 0.1221 -0.1221 -0.9925 -10093.4844 1484.021)"> <stop offset="0" style="stop-color:#FFFFFF"></stop> <stop offset="7.600000e-02" style="stop-color:#FFF3CE"></stop> <stop offset="0.1571" style="stop-color:#FFE7A1"></stop> <stop offset="0.2351" style="stop-color:#FFDF7E"></stop> <stop offset="0.3082" style="stop-color:#FFD865"></stop> <stop offset="0.3745" style="stop-color:#FFD455"></stop> <stop offset="0.4278" style="stop-color:#FFD350"></stop> <stop offset="0.9757" style="stop-color:#F7EA1E"></stop> </linearGradient> <path class="st12" d="M393.2,23.9c0.3-0.8,1.3-1.2,1.3-1.2s-0.2,1.6,0.5,3c0,0-1.1,0.1-1.3,0.5C393.2,25.2,393.1,24.5,393.2,23.9z "></path> </g> <linearGradient id="SVGID_12_" gradientUnits="userSpaceOnUse" x1="-10626.207" y1="212.9805" x2="-10587.6514" y2="118.5674" gradientTransform="matrix(-0.9925 0.1221 -0.1221 -0.9925 -10093.4844 1484.021)"> <stop offset="0" style="stop-color:#E5D292"></stop> <stop offset="0.2182" style="stop-color:#F3EC5A"></stop> <stop offset="0.4303" style="stop-color:#DDBB25"></stop> <stop offset="0.697" style="stop-color:#F1EC74"></stop> <stop offset="0.9995" style="stop-color:#F5EB3F"></stop> </linearGradient> <path class="st13" d="M406.9,7.3c11,0.5,21.1,13.4,21.1,13.4l2.7,16l-2.9,0c0,0,2.4-2.2,0.4-10.9c-2-8.6-11.5-15.8-18.5-17.5 c-7-1.7-12.2,1.8-13.8,6.5c0.1-1.1,0.3-2.1,0.7-3C397,11,399.1,7,406.9,7.3z"></path> <linearGradient id="SVGID_13_" gradientUnits="userSpaceOnUse" x1="-10618.7646" y1="157.4126" x2="-10606.7148" y2="146.6568" gradientTransform="matrix(-0.9925 0.1221 -0.1221 -0.9925 -10093.4844 1484.021)"> <stop offset="0" style="stop-color:#FAE59E"></stop> <stop offset="0.5079" style="stop-color:#F2C21A"></stop> <stop offset="0.697" style="stop-color:#F8E43F"></stop> <stop offset="1" style="stop-color:#C34127"></stop> </linearGradient> <path class="st14" d="M420.8,35.1c-0.5,0.5,0.2,1.3,0.2,1.3l0.4,3.2c0,0-0.6-0.5-1-1.4C420,35.8,420.4,35.4,420.8,35.1z"></path> <g> <linearGradient id="SVGID_14_" gradientUnits="userSpaceOnUse" x1="-10615.168" y1="168.5408" x2="-10616.5049" y2="141.9074" gradientTransform="matrix(-0.9925 0.1221 -0.1221 -0.9925 -10093.4844 1484.021)"> <stop offset="0" style="stop-color:#E5D292"></stop> <stop offset="0.2182" style="stop-color:#E0B524"></stop> <stop offset="0.5847" style="stop-color:#F6E000"></stop> <stop offset="0.697" style="stop-color:#D68D29"></stop> <stop offset="1" style="stop-color:#AC3B25"></stop> </linearGradient> <path class="st15" d="M427.5,35.4l0,0.1l0.3,2.7c-1.8,1.1-6.4,1.4-6.4,1.4l-0.4-3.2C422.8,36.3,427.5,35.4,427.5,35.4z"></path> <linearGradient id="SVGID_15_" gradientUnits="userSpaceOnUse" x1="-10615.9639" y1="164.3131" x2="-10615.8789" y2="148.4537" gradientTransform="matrix(-0.9925 0.1221 -0.1221 -0.9925 -10093.4844 1484.021)"> <stop offset="0" style="stop-color:#FAE59E"></stop> <stop offset="0.508" style="stop-color:#F6A71B"></stop> <stop offset="0.697" style="stop-color:#F8E43F"></stop> <stop offset="1" style="stop-color:#C34127"></stop> </linearGradient> <path class="st16" d="M420.8,35.1c0,0,2.3-0.1,5.9-0.8c0.8-0.2,0.7,0.4,0.7,0.4l0.1,0.8c0,0-4.7,1-6.5,1 C421,36.4,420.3,35.5,420.8,35.1z"></path> </g> <linearGradient id="SVGID_16_" gradientUnits="userSpaceOnUse" x1="-10599.5566" y1="166.8434" x2="-10594.8975" y2="156.319" gradientTransform="matrix(-0.9925 0.1221 -0.1221 -0.9925 -10093.4844 1484.021)"> <stop offset="0" style="stop-color:#FAE59E"></stop> <stop offset="0.508" style="stop-color:#F6A71B"></stop> <stop offset="0.697" style="stop-color:#F8E43F"></stop> <stop offset="1" style="stop-color:#C34127"></stop> </linearGradient> <path class="st17" d="M400.3,30.9c0.2-0.3,1-0.7,1.4-0.8c0.2,0,2.9,1.5,5.8,2.1c0,0,0,0,0.1,0c-0.3,0.3-0.9,0.7-1.1,0.9 C404,32.5,401.9,31.9,400.3,30.9z"></path> <g> <linearGradient id="SVGID_17_" gradientUnits="userSpaceOnUse" x1="-10609.0605" y1="159.0847" x2="-10591.1279" y2="153.9209" gradientTransform="matrix(-0.9925 0.1221 -0.1221 -0.9925 -10093.4844 1484.021)"> <stop offset="0" style="stop-color:#FAE59E"></stop> <stop offset="0.5079" style="stop-color:#F2C21A"></stop> <stop offset="0.697" style="stop-color:#F8E43F"></stop> <stop offset="1" style="stop-color:#C34127"></stop> </linearGradient> <path class="st18" d="M407.6,32.3c0.1,0.1,0.1,0.2,0.1,0.8c0,0.6,0.1,3.4,0.1,3.4s-0.6,0.5-1.1,0.8l-0.2-4 C406.8,33,407.3,32.6,407.6,32.3z"></path> <linearGradient id="SVGID_18_" gradientUnits="userSpaceOnUse" x1="-10596.4043" y1="165.8452" x2="-10594.7705" y2="147.3036" gradientTransform="matrix(-0.9925 0.1221 -0.1221 -0.9925 -10093.4844 1484.021)"> <stop offset="0" style="stop-color:#E5D292"></stop> <stop offset="0.2182" style="stop-color:#E0B524"></stop> <stop offset="0.3416" style="stop-color:#F6E000"></stop> <stop offset="0.697" style="stop-color:#D68D29"></stop> <stop offset="1" style="stop-color:#AC3B25"></stop> </linearGradient> <path class="st19" d="M400.3,30.9C400.3,30.9,400.3,30.9,400.3,30.9c1.6,1,3.6,1.6,6.3,2.2l0.2,4c-3.2-0.8-5.2-1.5-6.4-2.4 C400.3,34.1,400.1,31.2,400.3,30.9z"></path> </g> <path class="st20" d="M435.9,27.3l1.2-0.8l-0.3-1.5c0,0-0.5-1.3-1.5-1.2C435.6,25.8,435.9,27.3,435.9,27.3z"></path> <linearGradient id="SVGID_19_" gradientUnits="userSpaceOnUse" x1="-10630.5254" y1="153.2424" x2="-10627.1465" y2="170.6302" gradientTransform="matrix(-0.9925 0.1221 -0.1221 -0.9925 -10093.4844 1484.021)"> <stop offset="0" style="stop-color:#E5D292"></stop> <stop offset="0.2182" style="stop-color:#E0B524"></stop> <stop offset="0.3416" style="stop-color:#F6E000"></stop> <stop offset="0.698" style="stop-color:#D68D29"></stop> <stop offset="1" style="stop-color:#AC3B25"></stop> </linearGradient> <path class="st21" d="M436.1,29l1.2-0.1l-0.3-2.4c0,0-0.5-1-1.5-1C435.9,27.6,436.1,29,436.1,29z"></path> <linearGradient id="SVGID_20_" gradientUnits="userSpaceOnUse" x1="-10606.9434" y1="193.0309" x2="-10615.4307" y2="145.9485" gradientTransform="matrix(-0.9925 0.1221 -0.1221 -0.9925 -10093.4844 1484.021)"> <stop offset="0" style="stop-color:#FAE59E"></stop> <stop offset="0.2303" style="stop-color:#FFD350"></stop> <stop offset="0.5934" style="stop-color:#F6CE12"></stop> <stop offset="1" style="stop-color:#F6CE12"></stop> </linearGradient> <path class="st22" d="M406.9,7.3c-7.8-0.3-9.9,3.7-10.2,4.5c1-2.6,2.7-4.2,4.1-4.8c12.7-8.1,25.6,8.4,27.9,11.6 c0.2,0.3,0.5,0.4,0.7,0.2c0.1-0.1,0.3-0.3,0.5-0.4l0.2-0.2c0,0,0.2-0.6,0.1-0.7c-1.1-1.8-10.3-15.7-22.2-14.8 c-1.8,0.1-3,0.3-4.1,0.6c1.5-0.7,3-1.1,4.4-1.4c0.2,0,0.5-0.1,0.7-0.1c12.4-1.6,20.5,11.7,22.1,14.6c0.2,0.4,0.4,0.4,0.6,0.2 c0.1-0.1,0.2-0.2,0.3-0.4l0.2-0.3c0,0,0.1-0.5-0.1-0.8c-1.7-2.5-9.5-13.6-19.4-14.1c-1.3-0.1-2.6-0.3-3.8-0.2 c12.2-4.8,23.2,11.3,24.5,13.4c0.1,0.1,0.2,0.4,0.2,0.5c0.7,4.1,2.6,16.5,2.6,16.5s0.1,1.1-1.7,2.8c-1.7,1.6-4.1,2.6-4.1,2.6 l-2.7-16C428,20.7,418,7.8,406.9,7.3z"></path> <linearGradient id="SVGID_21_" gradientUnits="userSpaceOnUse" x1="-10611.7412" y1="192.5461" x2="-10619.5996" y2="148.9583" gradientTransform="matrix(-0.9925 0.1221 -0.1221 -0.9925 -10093.4844 1484.021)"> <stop offset="0" style="stop-color:#FFFFFF"></stop> <stop offset="7.930000e-02" style="stop-color:#FBF9CB"></stop> <stop offset="0.1594" style="stop-color:#F8F49E"></stop> <stop offset="0.2365" style="stop-color:#F6F07B"></stop> <stop offset="0.3086" style="stop-color:#F4ED62"></stop> <stop offset="0.3741" style="stop-color:#F3EC52"></stop> <stop offset="0.4267" style="stop-color:#F3EB4D"></stop> <stop offset="0.9742" style="stop-color:#F2EA4F"></stop> </linearGradient> <path class="st23" d="M408.5,2c0.2,0,0.5-0.1,0.7-0.1l0,0c7-0.9,12.7,3.2,16.2,6.8c1,1.1,1.9,2.1,2.7,3.1c0.6,0.8,1.2,1.5,0.6,1.9 c-0.5,0.3-1.1-0.6-1.6-1.2c-0.8-0.9-1.7-1.9-2.7-2.9c-3.7-3.6-9.5-7.8-16.2-7.3C407.7,2.2,408,2.1,408.5,2z"></path> <linearGradient id="SVGID_22_" gradientUnits="userSpaceOnUse" x1="-10605.9375" y1="191.4889" x2="-10614.0889" y2="146.2731" gradientTransform="matrix(-0.9925 0.1221 -0.1221 -0.9925 -10093.4844 1484.021)"> <stop offset="0" style="stop-color:#FFFFFF"></stop> <stop offset="7.930000e-02" style="stop-color:#FBF9CB"></stop> <stop offset="0.1594" style="stop-color:#F8F49E"></stop> <stop offset="0.2365" style="stop-color:#F6F07B"></stop> <stop offset="0.3086" style="stop-color:#F4ED62"></stop> <stop offset="0.3741" style="stop-color:#F3EC52"></stop> <stop offset="0.4267" style="stop-color:#F3EB4D"></stop> <stop offset="0.9742" style="stop-color:#F2EA4F"></stop> </linearGradient> <path class="st24" d="M400.9,7.1c0.8-0.7,3.6-1.8,5.5-2.1c6.1-0.8,11.8,3,15.6,6.4c1.3,1.1,2.4,2.3,3.4,3.4c0.5,0.6,1,1.3,0.5,1.7 c-0.7,0.5-1.5-0.4-1.8-0.7c-0.7-0.7-1.5-1.4-2.3-2.1c-3.6-3-9.1-6.7-14.9-6.9c-1.1-0.1-2.2,0-3.2,0.1 C401.4,7.3,400.4,7.6,400.9,7.1z"></path> <linearGradient id="SVGID_23_" gradientUnits="userSpaceOnUse" x1="-10615.1279" y1="193.0835" x2="-10622.4814" y2="152.291" gradientTransform="matrix(-0.9925 0.1221 -0.1221 -0.9925 -10093.4844 1484.021)"> <stop offset="0" style="stop-color:#FFFFFF"></stop> <stop offset="7.930000e-02" style="stop-color:#FBF9CB"></stop> <stop offset="0.1594" style="stop-color:#F8F49E"></stop> <stop offset="0.2365" style="stop-color:#F6F07B"></stop> <stop offset="0.3086" style="stop-color:#F4ED62"></stop> <stop offset="0.3741" style="stop-color:#F3EC52"></stop> <stop offset="0.4267" style="stop-color:#F3EB4D"></stop> <stop offset="0.9742" style="stop-color:#F2EA4F"></stop> </linearGradient> <path class="st25" d="M431.1,11.7c-0.5,0.2-0.8-0.3-1.7-1.4c-0.6-0.7-1.2-1.4-1.9-2c-3.2-3.3-8.3-7.3-14.4-7.6c-0.2,0-0.3,0-0.5,0 c-1.4-0.1-0.7-0.3-0.2-0.3c6-0.8,11.4,3.1,15,6.5c1,1,2,2,2.8,3C431.3,11.1,431.2,11.6,431.1,11.7z"></path> <path class="st26" d="M422.3,2.9c0.7,0.4,1.3,0.9,2,1.3c-0.1,0.2-0.3,0.5-0.5,0.8c-0.6-0.5-1.3-0.9-2-1.3 C422,3.4,422.2,3.1,422.3,2.9z"></path> <path class="st26" d="M421.4,7c-0.6-0.5-1.2-0.9-1.9-1.4c0.5-0.3,0.9-0.6,1.2-0.9c0.7,0.4,1.3,0.9,1.9,1.4 C422.2,6.4,421.8,6.7,421.4,7z"></path> <path class="st26" d="M416.2,7.3c0.7,0.4,1.4,0.8,2.1,1.3c-0.8,0.4-1.8,0.7-2.7,1c-0.8-0.4-1.6-0.8-2.5-1.2 C414.2,8,415.3,7.7,416.2,7.3z"></path> <linearGradient id="SVGID_24_" gradientUnits="userSpaceOnUse" x1="-10558.2637" y1="230.5764" x2="-10677.4512" y2="114.9386" gradientTransform="matrix(-0.9925 0.1221 -0.1221 -0.9925 -10093.4844 1484.021)"> <stop offset="0" style="stop-color:#E5D292"></stop> <stop offset="0.2182" style="stop-color:#F3EC5A"></stop> <stop offset="0.4303" style="stop-color:#DDBB25"></stop> <stop offset="0.697" style="stop-color:#F1EC74"></stop> <stop offset="0.9995" style="stop-color:#F5EB3F"></stop> </linearGradient> <path class="st27" d="M404,3.3c1.1-0.3,2.4-0.5,4.1-0.6c11.5-0.8,20.6,12.3,22.2,14.8c0.2,0.2,0,0.6,0,0.6 c-0.2,0.1-0.6,0.5-0.6,0.5s0.2-0.2,0.1-0.6C419.6,2.2,409.4,2.4,404.3,4.1c-2.2,0.7-3.3,1.8-3.3,1.8S401.9,4.3,404,3.3z"></path> <linearGradient id="SVGID_25_" gradientUnits="userSpaceOnUse" x1="-10631.002" y1="200.9665" x2="-10602.6914" y2="163.485" gradientTransform="matrix(-0.9925 0.1221 -0.1221 -0.9925 -10093.4844 1484.021)"> <stop offset="0" style="stop-color:#E5D292"></stop> <stop offset="0.2182" style="stop-color:#F3EC5A"></stop> <stop offset="0.4303" style="stop-color:#DDBB25"></stop> <stop offset="0.697" style="stop-color:#F1EC74"></stop> <stop offset="0.9995" style="stop-color:#F5EB3F"></stop> </linearGradient> <path class="st28" d="M409.2,1c1.1-0.1,2.1-0.2,3.4-0.1c10.5,0.5,18.5,12.4,19.9,14.5c0.1,0.2,0.2,0.4,0,0.5 c-0.1,0.1-0.3,0.4-0.3,0.4l0,0c-0.1,0.1-0.1,0.1-0.2,0.2c0.2-0.2,0.1-0.4,0-0.5c-7.2-11.4-14.2-14.3-19.2-14.7c0,0-2.1-0.1-4.4,0.1 C408.5,1.3,408.7,1.1,409.2,1z"></path> <g> <linearGradient id="SVGID_26_" gradientUnits="userSpaceOnUse" x1="-10623.9561" y1="187.4146" x2="-10625.6123" y2="154.9207" gradientTransform="matrix(-0.9925 0.1221 -0.1221 -0.9925 -10093.4844 1484.021)"> <stop offset="0.254" style="stop-color:#F7EA2E"></stop> <stop offset="0.9747" style="stop-color:#F6CE12"></stop> </linearGradient> <path class="st29" d="M434,15.9c0.9,5,2.4,15.4,2.4,15.4c0,0.1,0,1-1.7,2.6c-1.4,1.3-3.2,2.1-4,2.4c0,0-1.9-11.1-2.7-15.7 C430.7,19.1,432.7,17.3,434,15.9z"></path> </g> <linearGradient id="SVGID_27_" gradientUnits="userSpaceOnUse" x1="-10606.9912" y1="184.8344" x2="-10602.0459" y2="161.2806" gradientTransform="matrix(-0.9925 0.1221 -0.1221 -0.9925 -10093.4844 1484.021)"> <stop offset="0" style="stop-color:#FFFFFF"></stop> <stop offset="6.970000e-02" style="stop-color:#FBFAD3"></stop> <stop offset="0.1519" style="stop-color:#F8F5A6"></stop> <stop offset="0.2312" style="stop-color:#F5F083"></stop> <stop offset="0.3054" style="stop-color:#F3ED6A"></stop> <stop offset="0.3726" style="stop-color:#F1EC5A"></stop> <stop offset="0.4267" style="stop-color:#F1EB55"></stop> <stop offset="0.9758" style="stop-color:#F7E204"></stop> </linearGradient> <path class="st30" d="M424.2,20.4c-3-4.7-8.6-11.1-17.6-12c-3.2-0.2-10.6,0.8-10.9,11.2c0,1.7,6,6.4,14.4,6.5 C418.5,26.1,426,23.2,424.2,20.4z"></path> <linearGradient id="SVGID_28_" gradientUnits="userSpaceOnUse" x1="-10608.207" y1="183.1548" x2="-10601.9512" y2="153.3609" gradientTransform="matrix(-0.9925 0.1221 -0.1221 -0.9925 -10093.4844 1484.021)"> <stop offset="0" style="stop-color:#FFFFFF"></stop> <stop offset="7.710000e-02" style="stop-color:#FBF9CD"></stop> <stop offset="0.1578" style="stop-color:#F8F4A0"></stop> <stop offset="0.2355" style="stop-color:#F5EF7D"></stop> <stop offset="0.3082" style="stop-color:#F4EC64"></stop> <stop offset="0.3742" style="stop-color:#F2EB54"></stop> <stop offset="0.4273" style="stop-color:#F2EA4F"></stop> <stop offset="0.9758" style="stop-color:#F2EA4F"></stop> </linearGradient> <path class="st31" d="M422.3,20.1c0.1,0.1,0.1,0.2,0.2,0.3c-0.8,0.7-2.1,1.3-3.6,1.8c-2.3-4.7-6.6-10.6-14.1-12.6 c-0.8-0.2-1.8-0.3-2.9-0.3c1.5-0.5,3-0.6,4-0.5C414.2,9.7,419.5,15.8,422.3,20.1z"></path> <path class="st1" d="M407.7,39.4c0,0,0.4,0.4,0.8,0.3c0.8,0,1.6,0.2,1.5,0.4C409.8,40.5,408.5,40.5,407.7,39.4z"></path> <linearGradient id="SVGID_29_" gradientUnits="userSpaceOnUse" x1="-10609.4678" y1="157.6007" x2="-10631.7637" y2="153.8326" gradientTransform="matrix(-0.9925 0.1221 -0.1221 -0.9925 -10093.4844 1484.021)"> <stop offset="0" style="stop-color:#FFFFFF"></stop> <stop offset="7.590000e-02" style="stop-color:#FFF3CE"></stop> <stop offset="0.1569" style="stop-color:#FFE7A1"></stop> <stop offset="0.2348" style="stop-color:#FFDF7E"></stop> <stop offset="0.3078" style="stop-color:#FFD865"></stop> <stop offset="0.374" style="stop-color:#FFD455"></stop> <stop offset="0.4273" style="stop-color:#FFD350"></stop> <stop offset="0.9758" style="stop-color:#F6E411"></stop> </linearGradient> <path class="st32" d="M442.4,35c0,0-5.7-0.3-5.9-1c-0.2-0.8,1-0.3,1.5-1.7c0.5-1.4,5.1-0.6,4.8,0.7C442.6,34.2,443.2,35.1,442.4,35 z"></path> <linearGradient id="SVGID_30_" gradientUnits="userSpaceOnUse" x1="-10619.3613" y1="145.1532" x2="-10619.1318" y2="140.5422" gradientTransform="matrix(-0.9925 0.1221 -0.1221 -0.9925 -10093.4844 1484.021)"> <stop offset="0" style="stop-color:#FFFFFF"></stop> <stop offset="7.600000e-02" style="stop-color:#FFF3CE"></stop> <stop offset="0.1571" style="stop-color:#FFE7A1"></stop> <stop offset="0.2351" style="stop-color:#FFDF7E"></stop> <stop offset="0.3082" style="stop-color:#FFD865"></stop> <stop offset="0.3745" style="stop-color:#FFD455"></stop> <stop offset="0.4278" style="stop-color:#FFD350"></stop> <stop offset="0.9757" style="stop-color:#F7EA1E"></stop> </linearGradient> <path class="st33" d="M429.8,45.3c0,0-1.2,0.2-2,0c-0.4-0.1-0.5,0.3,0,0.4c0.6,0.1,1.5,0,2.1-0.1C430,45.5,430,45.3,429.8,45.3z"></path> <path class="st1" d="M407.8,32.9c0,0,0.2,2.6,0.7,3.2c0.3,0.4,0.9,0.6,0.9,0.6l-1.4-0.4L407.8,32.9z"></path> <path class="st1" d="M395,25.6c0,0-0.2,2-0.2,3.1c0.1,0.3,0.4,0.9,0.4,0.9S395,29,395,28.5C394.9,27.6,395,25.6,395,25.6z"></path> <linearGradient id="SVGID_31_" gradientUnits="userSpaceOnUse" x1="-10598.9111" y1="152.6905" x2="-10636.5029" y2="142.9475" gradientTransform="matrix(-0.9925 0.1221 -0.1221 -0.9925 -10093.4844 1484.021)"> <stop offset="0" style="stop-color:#FFFFFF"></stop> <stop offset="7.590000e-02" style="stop-color:#FFF3CE"></stop> <stop offset="0.1569" style="stop-color:#FFE7A1"></stop> <stop offset="0.2348" style="stop-color:#FFDF7E"></stop> <stop offset="0.3078" style="stop-color:#FFD865"></stop> <stop offset="0.374" style="stop-color:#FFD455"></stop> <stop offset="0.4273" style="stop-color:#FFD350"></stop> <stop offset="0.9758" style="stop-color:#F6E411"></stop> </linearGradient> <path class="st34" d="M430.4,39.3c1.9-0.4,5.3,0.8,7.5,1.7c-1.3,1-3,2-5,3C427.9,40.7,427.5,40,430.4,39.3z"></path> <path class="st35" d="M399.4,34.9c0,0,1.2-0.6,0.6-0.9c-0.6-0.3-4-1.8-5.1-4.5c-0.1-0.4-1.1,0.1-1.1,0.4 C394.3,32.1,398.5,35.5,399.4,34.9z"></path> <path class="st35" d="M406.7,37.5c0,0-0.1,0.3-0.4,0.3c-0.3,0-5.1-1.4-6.4-2.3c-0.3-0.2,0.2-0.5,0.3-0.4s2.9,1.5,5.4,2.1 C406.6,37.4,406.8,37.4,406.7,37.5z"></path> </g> <polygon class="st36" points="2.3,117.7 0,130.8 427.8,130.8 430.1,117.7 "></polygon> </svg> 